<?xml version="1.0" encoding="utf-8"?>
<!-- Generator: Adobe Illustrator 27.0.0, SVG Export Plug-In . SVG Version: 6.00 Build 0)  -->
<svg version="1.1" id="Layer_1" xmlns="http://www.w3.org/2000/svg" xmlns:xlink="http://www.w3.org/1999/xlink" x="0px" y="0px"
	 viewBox="0 0 610 52.8" style="enable-background:new 0 0 610 52.8;" xml:space="preserve">
<style type="text/css">
	.st0{fill:#007ACC;}
	.st1{fill:#FFFFFF;}
	.st2{fill:#242938;}
	.st3{fill:#00D8FF;}
	.st4{fill:none;stroke:#00D8FF;stroke-width:1.6708;stroke-miterlimit:10;}
	.st5{fill:url(#SVGID_1_);}
	.st6{fill:url(#SVGID_00000142174275023736011130000009881502419513652888_);}
	.st7{fill:#764ABC;}
	.st8{fill:#F0DB4F;}
	.st9{fill:#323330;}
	.st10{fill-rule:evenodd;clip-rule:evenodd;fill:url(#SVGID_00000085232955004139473180000004512678576499037064_);}
	.st11{fill:url(#SVGID_00000052815329830296554760000012664091574675934881_);}
	.st12{fill:url(#SVGID_00000098178997247028134650000001778888087182731175_);}
	.st13{fill:none;stroke:#FFFFFF;stroke-width:0.375;stroke-miterlimit:10;}
	.st14{fill:#CD6799;}
	.st15{clip-path:url(#SVGID_00000005976211402950169490000017323975308893859735_);}
	.st16{fill:#0277BD;}
	.st17{fill:#EBEBEB;}
	.st18{fill:#E14E1D;}
	.st19{fill:url(#SVGID_00000156584701125794836000000010473169690676733069_);}
	.st20{fill:url(#SVGID_00000098940191947287272140000013399511148691919761_);}
	.st21{fill:url(#SVGID_00000113351459353932574870000009402400411787662766_);}
	.st22{fill:url(#SVGID_00000052064436385486202320000006817266139426257822_);}
</style>
<g transform="translate(0, 0)">
	<path class="st0" d="M11.2,2.4h25.5C43,2.4,48,7.5,48,13.7v25.5c0,6.2-5,11.2-11.2,11.2H11.2C5,50.4,0,45.4,0,39.2V13.7
		C0,7.5,5,2.4,11.2,2.4z"/>
	<path class="st1" d="M10.6,26.6v2h3.1h3.1v8.9v8.9H19h2.2v-8.9v-8.9h3.1h3.1v-1.9c0-1.1,0-2-0.1-2c0,0-3.8,0-8.4,0h-8.4L10.6,26.6z
		"/>
	<path class="st1" d="M38.7,24.6c1.2,0.3,2.1,0.8,3,1.7c0.4,0.5,1.1,1.3,1.2,1.5c0,0.1-2.1,1.5-3.3,2.2c0,0-0.2-0.2-0.4-0.5
		c-0.6-0.9-1.3-1.3-2.3-1.4c-1.5-0.1-2.4,0.7-2.4,1.9c0,0.4,0.1,0.6,0.2,0.9c0.3,0.7,0.9,1.1,2.8,1.9c3.4,1.5,4.9,2.5,5.8,3.8
		c1,1.5,1.2,4,0.6,5.9c-0.8,2-2.7,3.4-5.3,3.8c-0.8,0.1-2.8,0.1-3.7,0C33,46,31.1,45,30,43.8c-0.4-0.5-1.3-1.8-1.2-1.9
		c0,0,0.2-0.2,0.4-0.3c0.2-0.1,1-0.6,1.8-1l1.4-0.8l0.3,0.4c0.4,0.6,1.3,1.5,1.8,1.7c1.5,0.8,3.6,0.7,4.7-0.2
		c0.4-0.4,0.6-0.8,0.6-1.4c0-0.6-0.1-0.8-0.4-1.2c-0.4-0.5-1.1-1-3.3-1.9c-2.5-1.1-3.5-1.7-4.5-2.8c-0.6-0.6-1.1-1.6-1.3-2.4
		c-0.2-0.7-0.2-2.4-0.1-3.1c0.5-2.4,2.3-4.1,4.9-4.6C35.9,24.3,37.9,24.4,38.7,24.6z"/>
</g>
<g transform="translate(300, 0)">
	<path class="st2" d="M-232.5,2.4h25.5c6.2,0,11.2,5,11.2,11.2v25.5c0,6.2-5,11.2-11.2,11.2h-25.5c-6.2,0-11.2-5-11.2-11.2V13.7
		C-243.8,7.5-238.7,2.4-232.5,2.4z"/>
	<path class="st3" d="M-219.7,30c1.9,0,3.5-1.6,3.5-3.5s-1.6-3.5-3.5-3.5s-3.5,1.6-3.5,3.5S-221.7,30-219.7,30z"/>
	<path class="st4" d="M-219.7,19.4c4.7,0,9.1,0.7,12.3,1.8c4,1.4,6.4,3.4,6.4,5.3c0,2-2.6,4.1-6.8,5.6c-3.2,1.1-7.5,1.6-11.9,1.6
		c-4.6,0-8.9-0.5-12.2-1.6c-4.1-1.4-6.6-3.6-6.6-5.5s2.3-3.9,6.2-5.3C-229,20-224.5,19.4-219.7,19.4L-219.7,19.4z"/>
	<path class="st4" d="M-225.9,22.9c2.3-4.1,5.1-7.5,7.7-9.8c3.2-2.8,6.2-3.8,7.8-2.9c1.7,1,2.3,4.3,1.4,8.7
		c-0.7,3.3-2.3,7.3-4.5,11.1c-2.3,4-4.9,7.4-7.5,9.7c-3.3,2.9-6.4,3.9-8.1,2.9c-1.6-0.9-2.2-4-1.5-8
		C-229.9,31.3-228.3,27-225.9,22.9L-225.9,22.9z"/>
	<path class="st4" d="M-225.9,30.1c-2.4-4.1-4-8.2-4.6-11.6c-0.8-4.1-0.2-7.3,1.4-8.2c1.7-1,4.9,0.2,8.2,3.1
		c2.5,2.3,5.1,5.6,7.4,9.5c2.3,4,4,8,4.7,11.3c0.8,4.3,0.2,7.5-1.5,8.5c-1.6,0.9-4.5-0.1-7.7-2.8C-220.7,37.7-223.6,34.2-225.9,30.1
		z"/>
</g>
<g transform="translate(600, 0)">
	<path class="st2" d="M-476.2,2.4h25.5c6.2,0,11.2,5,11.2,11.2v25.5c0,6.2-5,11.2-11.2,11.2h-25.5c-6.2,0-11.2-5-11.2-11.2V13.6
		C-487.5,7.4-482.5,2.4-476.2,2.4z"/>
	
		<linearGradient id="SVGID_1_" gradientUnits="userSpaceOnUse" x1="925.2114" y1="-2066.5967" x2="1041.9926" y2="-2225.1948" gradientTransform="matrix(0.1875 0 0 -0.1875 -646.375 -383.9375)">
		<stop  offset="0" style="stop-color:#41D1FF"/>
		<stop  offset="1" style="stop-color:#BD34FE"/>
	</linearGradient>
	<path class="st5" d="M-444.9,13.2l-17.6,31.5c-0.4,0.6-1.3,0.7-1.7,0l-17.9-31.5c-0.4-0.7,0.2-1.6,1-1.4l17.6,3.1
		c0.1,0,0.2,0,0.3,0l17.2-3.1C-445.1,11.6-444.5,12.5-444.9,13.2z"/>
	
		<linearGradient id="SVGID_00000019645351130548445510000010522186928688695428_" gradientUnits="userSpaceOnUse" x1="980.2801" y1="-2090.6946" x2="1001.4051" y2="-2235.6113" gradientTransform="matrix(0.1875 0 0 -0.1875 -646.375 -383.9375)">
		<stop  offset="0" style="stop-color:#FFEA83"/>
		<stop  offset="8.333330e-02" style="stop-color:#FFDD35"/>
		<stop  offset="1" style="stop-color:#FFA800"/>
	</linearGradient>
	<path style="fill:url(#SVGID_00000019645351130548445510000010522186928688695428_);" d="M-455.1,7.7l-13,2.6
		c-0.2,0-0.4,0.2-0.4,0.4l-0.8,13.5c0,0.3,0.3,0.6,0.6,0.5l3.6-0.8c0.3-0.1,0.6,0.2,0.6,0.6l-1.1,5.3c-0.1,0.4,0.3,0.7,0.6,0.6
		l2.2-0.7c0.3-0.1,0.7,0.2,0.6,0.6l-1.7,8.3c-0.1,0.5,0.6,0.8,0.9,0.4l0.2-0.3l10.6-21.2c0.2-0.4-0.1-0.8-0.5-0.7l-3.7,0.7
		c-0.4,0.1-0.6-0.3-0.6-0.6l2.4-8.4C-454.5,7.9-454.8,7.6-455.1,7.7z"/>
</g>
<g transform="translate(900, 0)">
	<path class="st7" d="M-720,2.4h25.5c6.2,0,11.2,5,11.2,11.2v25.5c0,6.2-5,11.2-11.2,11.2H-720c-6.2,0-11.2-5-11.2-11.2V13.7
		C-731.2,7.5-726.2,2.4-720,2.4z"/>
	<path class="st1" d="M-700,33.5c1.4-0.1,2.4-1.3,2.4-2.8c0-1.4-1.2-2.6-2.7-2.6h-0.1c-1.5,0-2.6,1.3-2.6,2.8c0,0.7,0.3,1.3,0.8,1.8
		c-1.6,3.2-4.1,5.5-7.8,7.5c-2.5,1.3-5.2,1.8-7.8,1.5c-2.1-0.3-3.8-1.2-4.9-2.8c-1.5-2.3-1.7-4.9-0.4-7.4c0.9-1.8,2.3-3.1,3.2-3.8
		c-0.2-0.6-0.5-1.7-0.6-2.4c-6.9,5-6.2,11.8-4.1,15c1.6,2.4,4.8,3.9,8.3,3.9c1,0,1.9-0.1,2.9-0.3C-707.3,42.5-702.6,38.9-700,33.5
		L-700,33.5z"/>
	<path class="st1" d="M-691.6,27.5c-3.6-4.2-9-6.6-15.1-6.6h-0.8c-0.4-0.9-1.3-1.4-2.3-1.4h-0.1c-1.5,0-2.6,1.3-2.6,2.8
		c0,1.4,1.2,2.6,2.7,2.6h0.1c1,0,2-0.7,2.3-1.6h0.9c3.6,0,7.1,1,10.2,3.1c2.4,1.6,4.1,3.6,5.1,6.1c0.8,2,0.8,4-0.1,5.6
		c-1.3,2.5-3.6,3.9-6.5,3.9c-1.9,0-3.7-0.6-4.7-1c-0.5,0.5-1.5,1.2-2.1,1.7c2.1,1,4.2,1.5,6.2,1.5c4.6,0,8-2.5,9.3-5.1
		C-687.9,36.4-688,31.6-691.6,27.5z"/>
	<path class="st1" d="M-715.9,34.3c0,1.4,1.2,2.6,2.7,2.6h0.1c1.5,0,2.6-1.3,2.6-2.8c0-1.4-1.2-2.6-2.7-2.6h-0.1c-0.1,0-0.2,0-0.3,0
		c-2-3.2-2.8-6.8-2.5-10.6c0.2-2.9,1.1-5.3,2.8-7.4c1.4-1.8,4.1-2.6,5.9-2.7c5.1-0.1,7.2,6.2,7.3,8.7c0.6,0.1,1.7,0.5,2.4,0.7
		c-0.6-7.7-5.3-11.7-9.9-11.7c-4.3,0-8.3,3.1-9.8,7.7c-2.2,6.1-0.8,12,1.9,16.6C-715.8,33.2-715.9,33.8-715.9,34.3L-715.9,34.3z"/>
</g>
<g transform="translate(1200, 0)">
	<path class="st8" d="M-963.8,2.4h25.5c6.2,0,11.2,5,11.2,11.2v25.5c0,6.2-5,11.2-11.2,11.2h-25.5c-6.2,0-11.2-5-11.2-11.2V13.7
		C-975,7.5-970,2.4-963.8,2.4z"/>
	<path class="st9" d="M-962.4,42.5l3.7-2.2c0.7,1.3,1.4,2.3,2.9,2.3s2.4-0.6,2.4-2.8V24.5h4.5v15.4c0,4.7-2.7,6.8-6.7,6.8
		C-959.2,46.7-961.3,44.8-962.4,42.5"/>
	<path class="st9" d="M-946.4,42l3.7-2.1c1,1.6,2.2,2.7,4.4,2.7c1.9,0,3.1-0.9,3.1-2.2c0-1.5-1.2-2.1-3.3-3l-1.1-0.5
		c-3.3-1.4-5.4-3.1-5.4-6.8c0-3.4,2.6-6,6.6-6c2.9,0,4.9,1,6.4,3.6l-3.5,2.3c-0.8-1.4-1.6-1.9-2.9-1.9c-1.3,0-2.2,0.8-2.2,1.9
		c0,1.4,0.8,1.9,2.8,2.7l1.1,0.5c3.8,1.6,6,3.3,6,7.1c0,4.1-3.2,6.3-7.5,6.3C-942.4,46.7-945.1,44.7-946.4,42"/>
</g>
<g transform="translate(1500, 0)">
	<path class="st2" d="M-1207.5,2.4h25.5c6.2,0,11.2,5,11.2,11.2v25.5c0,6.2-5,11.2-11.2,11.2h-25.5c-6.2,0-11.2-5-11.2-11.2V13.7
		C-1218.8,7.5-1213.7,2.4-1207.5,2.4z"/>
	
		<linearGradient id="SVGID_00000119096308186945531470000012757563653794460801_" gradientUnits="userSpaceOnUse" x1="105.3848" y1="5255.5938" x2="182.3848" y2="5367.0938" gradientTransform="matrix(0.1875 0 0 0.1875 -1221.75 -969.5083)">
		<stop  offset="0" style="stop-color:#32B1C1"/>
		<stop  offset="1" style="stop-color:#14C6B7"/>
	</linearGradient>
	<path style="fill-rule:evenodd;clip-rule:evenodd;fill:url(#SVGID_00000119096308186945531470000012757563653794460801_);" d="
		M-1203.2,23c1.1-4.5,3.9-6.8,8.4-6.8c6.8,0,7.6,5.1,11,5.9c2.3,0.6,4.2-0.3,5.9-2.5c-1.1,4.5-3.9,6.8-8.4,6.8
		c-6.8,0-7.6-5.1-11-5.9C-1199.5,19.9-1201.5,20.8-1203.2,23z M-1211.6,33.2c1.1-4.5,3.9-6.8,8.4-6.8c6.8,0,7.6,5.1,11,5.9
		c2.3,0.6,4.2-0.3,5.9-2.5c-1.1,4.5-3.9,6.8-8.4,6.8c-6.8,0-7.6-5.1-11-5.9C-1208,30.1-1209.9,30.9-1211.6,33.2z"/>
</g>
<g transform="translate(1800, 0)">
	
		<linearGradient id="SVGID_00000015351054868579547750000013702758776949700788_" gradientUnits="userSpaceOnUse" x1="-583.6957" y1="5183.2817" x2="-327.6957" y2="5439.2817" gradientTransform="matrix(0.1875 0 0 0.1875 -1353 -969.5083)">
		<stop  offset="0" style="stop-color:#9013FE"/>
		<stop  offset="1" style="stop-color:#6B11F4"/>
	</linearGradient>
	<path style="fill:url(#SVGID_00000015351054868579547750000013702758776949700788_);" d="M-1451.2,2.4h25.5c6.2,0,11.2,5,11.2,11.2
		v25.5c0,6.2-5,11.2-11.2,11.2h-25.5c-6.2,0-11.2-5-11.2-11.2V13.7C-1462.5,7.5-1457.5,2.4-1451.2,2.4z"/>
	<g>
		
			<linearGradient id="SVGID_00000128472000829329383810000002446595320469051274_" gradientUnits="userSpaceOnUse" x1="-500.8338" y1="5254.1011" x2="-438.0858" y2="5360.2231" gradientTransform="matrix(0.1875 0 0 0.1875 -1353 -969.5083)">
			<stop  offset="0" style="stop-color:#FFFFFF"/>
			<stop  offset="1" style="stop-color:#F1E5FC"/>
		</linearGradient>
		<path style="fill:url(#SVGID_00000128472000829329383810000002446595320469051274_);" d="M-1437.8,39.2c5.6,0,8.9-2.7,8.9-7.2
			c0-3.4-2.4-5.9-5.9-6.2v-0.1c2.6-0.4,4.7-2.8,4.7-5.6c0-3.9-3-6.4-7.7-6.4h-10.4v25.5C-1448.2,39.2-1437.8,39.2-1437.8,39.2z
			 M-1444.2,16.9h5.4c2.9,0,4.6,1.3,4.6,3.7c0,2.5-1.9,3.9-5.5,3.9h-4.5V16.9L-1444.2,16.9z M-1444.2,36v-8.4h5.4
			c3.8,0,5.8,1.4,5.8,4.2s-1.9,4.2-5.6,4.2H-1444.2L-1444.2,36z"/>
		<path class="st13" d="M-1437.8,39.2c5.6,0,8.9-2.7,8.9-7.2c0-3.4-2.4-5.9-5.9-6.2v-0.1c2.6-0.4,4.7-2.8,4.7-5.6
			c0-3.9-3-6.4-7.7-6.4h-10.4v25.5C-1448.2,39.2-1437.8,39.2-1437.8,39.2z M-1444.2,16.9h5.4c2.9,0,4.6,1.3,4.6,3.7
			c0,2.5-1.9,3.9-5.5,3.9h-4.5V16.9L-1444.2,16.9z M-1444.2,36v-8.4h5.4c3.8,0,5.8,1.4,5.8,4.2s-1.9,4.2-5.6,4.2H-1444.2L-1444.2,36
			z"/>
	</g>
</g>
<g transform="translate(2100, 0)">
	<path class="st14" d="M-1639.2,2.4h25.5c6.2,0,11.2,5,11.2,11.2v25.5c0,6.2-5,11.2-11.2,11.2h-25.5c-6.2,0-11.2-5-11.2-11.2V13.7
		C-1650.5,7.5-1645.5,2.4-1639.2,2.4z"/>
	<g>
		<g>
			<defs>
				<rect id="SVGID_00000139280283215258225180000010517576129577545123_" x="-1645.2" y="12.4" width="37.5" height="28.1"/>
			</defs>
			<clipPath id="SVGID_00000136376607397784140680000017889151621511172261_">
				<use xlink:href="#SVGID_00000139280283215258225180000010517576129577545123_"  style="overflow:visible;"/>
			</clipPath>
			<g style="clip-path:url(#SVGID_00000136376607397784140680000017889151621511172261_);">
				<path class="st1" d="M-1613,28.5c-1.3,0-2.4,0.3-3.4,0.8c-0.3-0.7-0.7-1.3-0.8-1.8c-0.1-0.5-0.2-0.8-0.1-1.5s0.5-1.5,0.4-1.6
					c0-0.1-0.1-0.4-0.8-0.4c-0.8,0-1.4,0.1-1.5,0.3c-0.1,0.2-0.2,0.7-0.3,1.1c-0.1,0.7-1.5,3.1-2.3,4.4c-0.3-0.5-0.5-0.9-0.5-1.3
					c-0.1-0.5-0.2-0.8-0.1-1.5c0.1-0.6,0.5-1.5,0.4-1.6c0-0.1-0.1-0.4-0.8-0.4c-0.8,0-1.4,0.1-1.5,0.3c-0.1,0.2-0.2,0.7-0.3,1.1
					c-0.2,0.5-2,4.5-2.5,5.6c-0.2,0.5-0.5,1-0.6,1.3c0,0,0,0,0,0.1c-0.1,0.3-0.2,0.4-0.2,0.4l0,0c-0.1,0.2-0.2,0.4-0.3,0.4
					c0,0-0.1-0.5,0-1.2c0.3-1.4,0.9-3.6,0.9-3.7c0,0,0.1-0.4-0.4-0.6s-0.7,0.1-0.8,0.1l-0.1,0.1c0,0,0.6-2.5-1.1-2.5
					c-1.1,0-2.6,1.2-3.3,2.3c-0.5,0.3-1.5,0.8-2.5,1.4c-0.4,0.2-0.8,0.5-1.2,0.7l-0.1-0.1c-2.1-2.2-6-3.8-5.8-6.8
					c0.1-1.1,0.4-4,7.4-7.5c5.8-2.8,10.4-2.1,11.1-0.3c1.1,2.5-2.5,7.1-8.4,7.8c-2.3,0.3-3.5-0.6-3.8-1c-0.3-0.3-0.4-0.4-0.5-0.3
					c-0.2,0.1-0.1,0.4,0,0.6c0.2,0.5,0.9,1.3,2.1,1.7c1.1,0.4,3.8,0.6,7-0.7c3.6-1.4,6.4-5.3,5.6-8.5c-0.8-3.3-6.3-4.4-11.5-2.5
					c-3.1,1.1-6.4,2.8-8.8,5.1c-2.9,2.7-3.3,5-3.1,6c0.7,3.5,5.4,5.7,7.3,7.4c-0.1,0.1-0.2,0.1-0.3,0.1c-1,0.5-4.6,2.4-5.5,4.4
					c-1,2.3,0.2,3.9,1,4.1c2.4,0.7,5-0.5,6.3-2.6c1.3-2,1.2-4.6,0.6-5.8l0,0c0.2-0.1,0.5-0.3,0.7-0.4c0.5-0.3,1-0.6,1.4-0.8
					c-0.2,0.6-0.4,1.4-0.5,2.5c-0.1,1.3,0.4,3,1.1,3.6c0.3,0.3,0.7,0.3,0.9,0.3c0.8,0,1.2-0.7,1.6-1.5c0.5-1,0.9-2.1,0.9-2.1
					s-0.6,3.1,1,3.1c0.5,0,1.1-0.7,1.3-1.1l0,0c0,0,0,0,0-0.1c0.1-0.1,0.1-0.1,0.1-0.1l0,0c0.2-0.4,0.7-1.3,1.4-2.7
					c0.9-1.9,1.9-4.2,1.9-4.2s0.1,0.6,0.4,1.5c0.2,0.6,0.5,1.2,0.8,1.8c-0.2,0.3-0.4,0.5-0.4,0.5l0,0c-0.2,0.2-0.4,0.5-0.6,0.7
					c-0.7,0.9-1.6,1.9-1.8,2.2c-0.1,0.3-0.1,0.6,0.2,0.8c0.2,0.2,0.6,0.2,0.9,0.2c0.7,0,1.1-0.2,1.4-0.3c0.4-0.1,0.8-0.3,1.2-0.6
					c0.7-0.5,1.2-1.3,1.1-2.3c0-0.6-0.2-1.1-0.4-1.6c0.1-0.1,0.1-0.2,0.2-0.3c1.2-1.7,2.1-3.5,2.1-3.5s0.1,0.6,0.4,1.5
					c0.1,0.5,0.4,1,0.7,1.5c-1.1,0.9-1.8,1.9-2,2.6c-0.4,1.2-0.1,1.8,0.5,1.9c0.3,0.1,0.7-0.1,1-0.2c0.4-0.1,0.8-0.3,1.3-0.7
					c0.7-0.5,1.4-1.3,1.4-2.3c0-0.5-0.1-0.9-0.3-1.4c0.9-0.4,2.1-0.6,3.6-0.4c3.3,0.4,3.9,2.4,3.8,3.3c-0.1,0.9-0.8,1.3-1,1.5
					c-0.2,0.1-0.3,0.2-0.3,0.3c0,0.2,0.1,0.1,0.3,0.1c0.3,0,1.7-0.7,1.8-2.3C-1607.7,30.7-1609.6,28.5-1613,28.5z M-1638.1,37
					c-1.1,1.2-2.6,1.6-3.2,1.2c-0.7-0.4-0.4-2.1,0.9-3.4c0.8-0.8,1.8-1.5,2.5-1.9c0.2-0.1,0.4-0.2,0.7-0.4h0.1
					c0.1,0,0.1-0.1,0.2-0.1C-1636.5,34.2-1637,35.7-1638.1,37z M-1630.2,31.6c-0.4,0.9-1.2,3.3-1.6,3.1c-0.4-0.1-0.7-1.9-0.1-3.6
					c0.3-0.9,0.9-1.9,1.3-2.3c0.6-0.7,1.2-0.9,1.4-0.6C-1629.1,28.5-1630,31.1-1630.2,31.6z M-1623.7,34.7c-0.2,0.1-0.3,0.1-0.4,0.1
					l0.1-0.1c0,0,0.8-0.9,1.1-1.3c0.2-0.2,0.4-0.5,0.6-0.8v0.1C-1622.3,33.7-1623.3,34.4-1623.7,34.7z M-1618.7,33.6
					c-0.1-0.1-0.1-0.4,0.3-1.2c0.2-0.3,0.5-0.9,1.1-1.4c0.1,0.2,0.1,0.4,0.1,0.6C-1617.2,32.9-1618.2,33.4-1618.7,33.6z"/>
			</g>
		</g>
	</g>
</g>
<g transform="translate(2400, 0)">
	<path class="st16" d="M-1883,2.4h25.5c6.2,0,11.2,5,11.2,11.2v25.5c0,6.2-5,11.2-11.2,11.2h-25.5c-6.2,0-11.2-5-11.2-11.2V13.7
		C-1894.2,7.5-1889.2,2.4-1883,2.4z"/>
	<path class="st17" d="M-1884.2,21.7l0.5,6h13.4v-6H-1884.2z"/>
	<path class="st17" d="M-1870.2,9.5L-1870.2,9.5h-15l0.5,6h14.5V9.5z"/>
	<path class="st17" d="M-1870.2,43.4v-6.2l0,0l-6.7-1.8l-0.4-4.8h-3.2h-2.8l0.8,9.4L-1870.2,43.4L-1870.2,43.4z"/>
	<path class="st1" d="M-1862.9,27.7l-0.7,7.8l-6.7,1.8v6.2l12.3-3.4l0.1-1l1.4-15.8l0.1-1.6l1.1-12.1h-15v6h8.4l-0.5,6.1h-7.9v6
		C-1870.3,27.7-1862.9,27.7-1862.9,27.7z"/>
</g>
<g transform="translate(2700, 0)">
	<path class="st18" d="M-2126.8,2.4h25.5c6.2,0,11.2,5,11.2,11.2v25.5c0,6.2-5,11.2-11.2,11.2h-25.5c-6.2,0-11.2-5-11.2-11.2V13.7
		C-2138,7.5-2133,2.4-2126.8,2.4z"/>
	<path class="st1" d="M-2129,9.5l1.6,18.1h20.8l-0.7,7.8l-6.7,1.8l-6.7-1.8l-0.4-5h-6l0.9,9.6l12.3,3.4l12.3-3.4l1.6-18.4h-21.8
		l-0.5-6.1h22.9l0,0l0.5-6H-2129z"/>
	<path class="st17" d="M-2114,9.5h-15l1.6,18.1h13.4v-6h-7.9l-0.5-6.1h8.5v-6H-2114z"/>
	<path class="st17" d="M-2114,37.2L-2114,37.2l-6.7-1.8l-0.4-5h-6l0.9,9.6l12.3,3.4l0,0v-6.2H-2114z"/>
</g>
<g>
	<path class="st1" d="M405,2.4h25.5c6.2,0,11.2,5,11.2,11.2v25.5c0,6.2-5,11.2-11.2,11.2H405c-6.2,0-11.2-5-11.2-11.2V13.7
		C393.8,7.5,398.8,2.4,405,2.4z"/>
	<g>
		
			<linearGradient id="SVGID_00000018943454751433505380000007137074641684007834_" gradientUnits="userSpaceOnUse" x1="-690.1862" y1="3.4457" x2="-690.0996" y2="3.5168" gradientTransform="matrix(189.8312 0 0 255.3408 131426.5 -863.8658)">
			<stop  offset="0" style="stop-color:#4285EB"/>
			<stop  offset="1" style="stop-color:#2EC7FF"/>
		</linearGradient>
		<path style="fill:url(#SVGID_00000018943454751433505380000007137074641684007834_);" d="M415.7,3.3l-21.1,21.1
			c-1.1,1.1-1.1,3,0,4.1l21.1,21.1c1.1,1.1,3,1.1,4.1,0l8.8-8.8c1-1,1-2.7,0-3.7s-2.7-1-3.7,0l-6.7,6.7c-0.3,0.3-0.7,0.3-1,0
			L400.3,27c-0.3-0.3-0.3-0.7,0-1l16.9-16.8c0.3-0.3,0.7-0.3,1,0l6.7,6.7c1,1,2.7,1,3.7,0s1-2.7,0-3.7l-8.8-8.8
			C418.7,2.1,416.8,2.1,415.7,3.3z"/>
		
			<linearGradient id="SVGID_00000053545098058987167220000002365556434063029155_" gradientUnits="userSpaceOnUse" x1="-690.148" y1="3.3898" x2="-690.1773" y2="3.5937" gradientTransform="matrix(189.8312 0 0 255.3408 131426.5 -863.8658)">
			<stop  offset="0" style="stop-color:#29CDFF"/>
			<stop  offset="0.3786" style="stop-color:#148EFF"/>
			<stop  offset="1" style="stop-color:#0A60FF"/>
		</linearGradient>
		<path style="fill:url(#SVGID_00000053545098058987167220000002365556434063029155_);" d="M415.7,3.3l-21.1,21.1
			c-1.1,1.1-1.1,3,0,4.1l21.1,21.1c1.1,1.1,3,1.1,4.1,0l8.8-8.8c1-1,1-2.7,0-3.7s-2.7-1-3.7,0l-6.7,6.7c-0.3,0.3-0.7,0.3-1,0
			L400.3,27c-0.3-0.3-0.3-0.7,0-1l16.9-16.8c0.7-0.6,1.9-1.8,3.5-2.1c1.3-0.2,2.6,0.3,4.1,1.4c-1-1-2.7-2.7-5.1-5.1
			C418.7,2.1,416.8,2.1,415.7,3.3z"/>
		
			<linearGradient id="SVGID_00000127010747122179442360000007855653723643052222_" gradientUnits="userSpaceOnUse" x1="-681.1063" y1="8.6897" x2="-681.2059" y2="8.9348" gradientTransform="matrix(63.2292 0 0 99.5071 43503.8047 -850.0629)">
			<stop  offset="0" style="stop-color:#FA816E"/>
			<stop  offset="0.4147" style="stop-color:#F74A5C"/>
			<stop  offset="1" style="stop-color:#F51D2C"/>
		</linearGradient>
		<path style="fill:url(#SVGID_00000127010747122179442360000007855653723643052222_);" d="M430.7,35.1c1,1,2.7,1,3.7,0l6.5-6.5
			c1.1-1.1,1.1-3,0-4.1l-6.6-6.6c-1-1-2.7-1-3.7,0s-1,2.7,0,3.7L435,26c0.3,0.3,0.3,0.7,0,1l-4.4,4.4
			C429.7,32.4,429.7,34.1,430.7,35.1L430.7,35.1z"/>
		
			<linearGradient id="SVGID_00000005235216719156794190000014083412072818671249_" gradientUnits="userSpaceOnUse" x1="-679.2111" y1="14.2467" x2="-679.2819" y2="14.5299" gradientTransform="matrix(60.6534 0 0 60.6035 41616.7734 -846.5289)">
			<stop  offset="0" style="stop-color:#FA8E7D"/>
			<stop  offset="0.5126" style="stop-color:#F74A5C"/>
			<stop  offset="1" style="stop-color:#F51D2C"/>
		</linearGradient>
		
			<ellipse style="fill:url(#SVGID_00000005235216719156794190000014083412072818671249_);" cx="417.9" cy="26.5" rx="5.7" ry="5.7"/>
	</g>
</g>
</svg>
