<?xml version="1.0" encoding="utf-8"?>
<!-- Generator: Adobe Illustrator 27.0.0, SVG Export Plug-In . SVG Version: 6.00 Build 0)  -->
<svg version="1.1" id="Layer_1" xmlns="http://www.w3.org/2000/svg" xmlns:xlink="http://www.w3.org/1999/xlink" x="0px" y="0px"
	 viewBox="0 0 555 48" style="enable-background:new 0 0 555 48;" xml:space="preserve">
<style type="text/css">
	.st0{fill:#007ACC;}
	.st1{fill:#FFFFFF;}
	.st2{fill:#242938;}
	.st3{fill:#00D8FF;}
	.st4{fill:none;stroke:#00D8FF;stroke-width:1.5189;stroke-miterlimit:10;}
	.st5{fill:url(#SVGID_1_);}
	.st6{fill:url(#SVGID_00000081613627229229826820000015392995512772117172_);}
	.st7{fill:#764ABC;}
	.st8{fill:#F0DB4F;}
	.st9{fill:#323330;}
	.st10{fill-rule:evenodd;clip-rule:evenodd;fill:url(#SVGID_00000025418612625853384960000002573303157385833350_);}
	.st11{fill:url(#SVGID_00000094576416932763606410000006634575186053389699_);}
	.st12{fill:url(#SVGID_00000005952017238836730560000014187619669991509944_);}
	.st13{fill:none;stroke:#FFFFFF;stroke-width:0.3409;stroke-miterlimit:10;}
	.st14{fill:#CD6799;}
	.st15{clip-path:url(#SVGID_00000124144368541017417180000009124124590774239422_);}
	.st16{fill:#0277BD;}
	.st17{fill:#EBEBEB;}
	.st18{fill:#E14E1D;}
	.st19{fill:url(#SVGID_00000114054403317682152920000008949825816635302018_);}
	.st20{fill:url(#SVGID_00000097479312281548151810000004644198785122672575_);}
	.st21{fill:url(#SVGID_00000132796640659229593480000003697194886183701676_);}
	.st22{fill:url(#SVGID_00000116233648557918877370000017779994166249190816_);}
</style>
<g transform="translate(0, 0)">
	<path class="st0" d="M10.2,2.2h23.2c5.7,0,10.3,4.6,10.3,10.3v23.2c0,5.6-4.5,10.2-10.2,10.2H10.2C4.5,45.8,0,41.3,0,35.6V12.5
		C0,6.8,4.5,2.2,10.2,2.2z"/>
	<path class="st1" d="M9.6,24.2V26h2.8h2.8v8.1v8.1h2h2v-8.1V26h2.8h2.8v-1.7c0-1,0-1.8-0.1-1.8c0,0-3.5,0-7.6,0H9.5L9.6,24.2z"/>
	<path class="st1" d="M35.2,22.4c1.1,0.3,1.9,0.7,2.7,1.5c0.4,0.5,1,1.2,1.1,1.4c0,0.1-1.9,1.4-3,2c0,0-0.2-0.2-0.4-0.5
		c-0.5-0.8-1.2-1.2-2.1-1.3c-1.4-0.1-2.2,0.6-2.2,1.7c0,0.4,0.1,0.5,0.2,0.8c0.3,0.6,0.8,1,2.5,1.7c3.1,1.4,4.5,2.3,5.3,3.5
		c0.9,1.4,1.1,3.6,0.5,5.4c-0.7,1.8-2.5,3.1-4.8,3.5c-0.7,0.1-2.5,0.1-3.4,0c-1.7-0.3-3.5-1.2-4.5-2.3c-0.4-0.5-1.2-1.6-1.1-1.7
		c0,0,0.2-0.2,0.4-0.3s0.9-0.5,1.6-0.9l1.3-0.7l0.3,0.4c0.4,0.5,1.2,1.4,1.6,1.5c1.4,0.7,3.3,0.6,4.3-0.2c0.4-0.4,0.5-0.7,0.5-1.3
		c0-0.5-0.1-0.7-0.4-1.1c-0.4-0.5-1-0.9-3-1.7c-2.3-1-3.2-1.5-4.1-2.5c-0.5-0.5-1-1.5-1.2-2.2c-0.2-0.6-0.2-2.2-0.1-2.8
		c0.5-2.2,2.1-3.7,4.5-4.2C32.6,22.1,34.5,22.2,35.2,22.4z"/>
</g>
<g transform="translate(300, 0)">
	<path class="st2" d="M-238.6,2.2h23.2c5.6,0,10.2,4.5,10.2,10.2v23.2c0,5.6-4.5,10.2-10.2,10.2h-23.2c-5.6,0-10.2-4.5-10.2-10.2
		V12.5C-248.9,6.8-244.3,2.2-238.6,2.2z"/>
	<path class="st3" d="M-227,27.3c1.7,0,3.2-1.5,3.2-3.2s-1.5-3.2-3.2-3.2s-3.2,1.5-3.2,3.2S-228.8,27.3-227,27.3z"/>
	<path class="st4" d="M-227,17.6c4.3,0,8.3,0.6,11.2,1.6c3.6,1.3,5.8,3.1,5.8,4.8c0,1.8-2.4,3.7-6.2,5.1c-2.9,1-6.8,1.5-10.8,1.5
		c-4.2,0-8.1-0.5-11.1-1.5c-3.7-1.3-6-3.3-6-5c0-1.7,2.1-3.5,5.6-4.8C-235.5,18.2-231.4,17.6-227,17.6L-227,17.6z"/>
	<path class="st4" d="M-232.6,20.8c2.1-3.7,4.6-6.8,7-8.9c2.9-2.5,5.6-3.5,7.1-2.6c1.5,0.9,2.1,3.9,1.3,7.9c-0.6,3-2.1,6.6-4.1,10.1
		c-2.1,3.6-4.5,6.7-6.8,8.8c-3,2.6-5.8,3.5-7.4,2.6c-1.5-0.8-2-3.6-1.4-7.3C-236.3,28.5-234.8,24.5-232.6,20.8L-232.6,20.8z"/>
	<path class="st4" d="M-232.6,27.4c-2.2-3.7-3.6-7.5-4.2-10.5c-0.7-3.7-0.2-6.6,1.3-7.5c1.5-0.9,4.5,0.2,7.5,2.8
		c2.3,2.1,4.6,5.1,6.7,8.6c2.1,3.6,3.6,7.3,4.3,10.3c0.7,3.9,0.2,6.8-1.4,7.7c-1.5,0.8-4.1-0.1-7-2.5
		C-227.9,34.3-230.5,31.1-232.6,27.4z"/>
</g>
<g transform="translate(600, 0)">
	<path class="st2" d="M-487.5,2.2h23.2c5.6,0,10.2,4.5,10.2,10.2v23.2c0,5.6-4.5,10.2-10.2,10.2h-23.2c-5.6,0-10.2-4.5-10.2-10.2
		V12.4C-497.7,6.7-493.2,2.2-487.5,2.2z"/>
	
		<linearGradient id="SVGID_1_" gradientUnits="userSpaceOnUse" x1="1710.8898" y1="5200.9644" x2="1817.0544" y2="5345.1445" gradientTransform="matrix(0.1875 0 0 0.1875 -805.25 -971.95)">
		<stop  offset="0" style="stop-color:#41D1FF"/>
		<stop  offset="1" style="stop-color:#BD34FE"/>
	</linearGradient>
	<path class="st5" d="M-459,12l-16,28.6c-0.4,0.5-1.2,0.6-1.5,0L-492.8,12c-0.4-0.6,0.2-1.5,0.9-1.3l16,2.8c0.1,0,0.2,0,0.3,0
		l15.6-2.8C-459.2,10.5-458.6,11.4-459,12z"/>
	
		<linearGradient id="SVGID_00000175320889148545190250000006032451601782657924_" gradientUnits="userSpaceOnUse" x1="1761.0297" y1="5222.8428" x2="1780.2341" y2="5354.585" gradientTransform="matrix(0.1875 0 0 0.1875 -805.25 -971.95)">
		<stop  offset="0" style="stop-color:#FFEA83"/>
		<stop  offset="8.333330e-02" style="stop-color:#FFDD35"/>
		<stop  offset="1" style="stop-color:#FFA800"/>
	</linearGradient>
	<path style="fill:url(#SVGID_00000175320889148545190250000006032451601782657924_);" d="M-468.3,7l-11.8,2.4
		c-0.2,0-0.4,0.2-0.4,0.4l-0.7,12.3c0,0.3,0.3,0.5,0.5,0.5l3.3-0.7c0.3-0.1,0.5,0.2,0.5,0.5l-1,4.8c-0.1,0.4,0.3,0.6,0.5,0.5l2-0.6
		c0.3-0.1,0.6,0.2,0.5,0.5l-1.5,7.5c-0.1,0.5,0.5,0.7,0.8,0.4l0.2-0.3l9.6-19.3c0.2-0.4-0.1-0.7-0.5-0.6l-3.4,0.6
		c-0.4,0.1-0.5-0.3-0.5-0.5l2.2-7.6C-467.7,7.2-468,6.9-468.3,7z"/>
</g>
<g transform="translate(900, 0)">
	<path class="st7" d="M-736.4,2.2h23.2c5.6,0,10.2,4.5,10.2,10.2v23.2c0,5.6-4.5,10.2-10.2,10.2h-23.2c-5.6,0-10.2-4.5-10.2-10.2
		V12.5C-746.5,6.8-742,2.2-736.4,2.2z"/>
	<path class="st1" d="M-718.2,30.5c1.3-0.1,2.2-1.2,2.2-2.5c0-1.3-1.1-2.4-2.5-2.4h-0.1c-1.4,0-2.4,1.2-2.4,2.5
		c0,0.6,0.3,1.2,0.7,1.6c-1.5,2.9-3.7,5-7.1,6.8c-2.3,1.2-4.7,1.6-7.1,1.4c-1.9-0.3-3.5-1.1-4.5-2.5c-1.4-2.1-1.5-4.5-0.4-6.7
		c0.8-1.6,2.1-2.8,2.9-3.5c-0.2-0.5-0.5-1.5-0.5-2.2c-6.3,4.5-5.6,10.7-3.7,13.6c1.5,2.2,4.4,3.5,7.5,3.5c0.9,0,1.7-0.1,2.6-0.3
		C-724.8,38.6-720.5,35.4-718.2,30.5L-718.2,30.5z"/>
	<path class="st1" d="M-710.5,25c-3.3-3.8-8.2-6-13.7-6h-0.7c-0.4-0.8-1.2-1.3-2.1-1.3h-0.1c-1.4,0-2.4,1.2-2.4,2.5
		c0,1.3,1.1,2.4,2.5,2.4h0.1c0.9,0,1.8-0.6,2.1-1.5h0.8c3.3,0,6.5,0.9,9.3,2.8c2.2,1.5,3.7,3.3,4.6,5.5c0.7,1.8,0.7,3.6-0.1,5.1
		c-1.2,2.3-3.3,3.5-5.9,3.5c-1.7,0-3.4-0.5-4.3-0.9c-0.5,0.5-1.4,1.1-1.9,1.5c1.9,0.9,3.8,1.4,5.6,1.4c4.2,0,7.3-2.3,8.5-4.6
		C-707.2,33.1-707.3,28.7-710.5,25z"/>
	<path class="st1" d="M-732.6,31.2c0,1.3,1.1,2.4,2.5,2.4h0.1c1.4,0,2.4-1.2,2.4-2.5c0-1.3-1.1-2.4-2.5-2.4h-0.1c-0.1,0-0.2,0-0.3,0
		c-1.8-2.9-2.5-6.2-2.3-9.6c0.2-2.6,1-4.8,2.5-6.7c1.3-1.6,3.7-2.4,5.4-2.5c4.6-0.1,6.5,5.6,6.6,7.9c0.5,0.1,1.5,0.5,2.2,0.6
		c-0.5-7-4.8-10.6-9-10.6c-3.9,0-7.5,2.8-8.9,7c-2,5.5-0.7,10.9,1.7,15.1C-732.5,30.2-732.6,30.7-732.6,31.2L-732.6,31.2z"/>
</g>
<g transform="translate(1200, 0)">
	<path class="st8" d="M-985.3,2.2h23.2c5.6,0,10.2,4.5,10.2,10.2v23.2c0,5.6-4.5,10.2-10.2,10.2h-23.2c-5.6,0-10.2-4.5-10.2-10.2
		V12.5C-995.5,6.8-990.9,2.2-985.3,2.2z"/>
	<path class="st9" d="M-984,38.6l3.4-2c0.6,1.2,1.3,2.1,2.6,2.1s2.2-0.5,2.2-2.5V22.3h4.1v14c0,4.3-2.5,6.2-6.1,6.2
		C-981.1,42.5-983,40.7-984,38.6"/>
	<path class="st9" d="M-969.5,38.2l3.4-1.9c0.9,1.5,2,2.5,4,2.5c1.7,0,2.8-0.8,2.8-2c0-1.4-1.1-1.9-3-2.7l-1-0.5
		c-3-1.3-4.9-2.8-4.9-6.2c0-3.1,2.4-5.5,6-5.5c2.6,0,4.5,0.9,5.8,3.3l-3.2,2.1c-0.7-1.3-1.5-1.7-2.6-1.7s-2,0.7-2,1.7
		c0,1.3,0.7,1.7,2.5,2.5l1,0.5c3.5,1.5,5.5,3,5.5,6.5c0,3.7-2.9,5.7-6.8,5.7C-965.8,42.5-968.3,40.6-969.5,38.2"/>
</g>
<g transform="translate(1500, 0)">
	<path class="st2" d="M-1234.1,2.2h23.2c5.6,0,10.2,4.5,10.2,10.2v23.2c0,5.6-4.5,10.2-10.2,10.2h-23.2c-5.6,0-10.2-4.5-10.2-10.2
		V12.5C-1244.4,6.8-1239.7,2.2-1234.1,2.2z"/>
	
		<linearGradient id="SVGID_00000039120807839251674390000004285196602286664369_" gradientUnits="userSpaceOnUse" x1="-91.7713" y1="-7310.7437" x2="-21.7714" y2="-7412.1074" gradientTransform="matrix(0.1875 0 0 -0.1875 -1211.875 -1356.2958)">
		<stop  offset="0" style="stop-color:#32B1C1"/>
		<stop  offset="1" style="stop-color:#14C6B7"/>
	</linearGradient>
	<path style="fill-rule:evenodd;clip-rule:evenodd;fill:url(#SVGID_00000039120807839251674390000004285196602286664369_);" d="
		M-1230.2,20.9c1-4.1,3.5-6.2,7.6-6.2c6.2,0,6.9,4.6,10,5.4c2.1,0.5,3.8-0.3,5.4-2.3c-1,4.1-3.5,6.2-7.6,6.2c-6.2,0-6.9-4.6-10-5.4
		C-1226.8,18.1-1228.6,18.9-1230.2,20.9z M-1237.8,30.2c1-4.1,3.5-6.2,7.6-6.2c6.2,0,6.9,4.6,10,5.4c2.1,0.5,3.8-0.3,5.4-2.3
		c-1,4.1-3.5,6.2-7.6,6.2c-6.2,0-6.9-4.6-10-5.4C-1234.5,27.4-1236.3,28.1-1237.8,30.2z"/>
</g>
<g transform="translate(1800, 0)">
	
		<linearGradient id="SVGID_00000026857320510698351430000014940005083841113742_" gradientUnits="userSpaceOnUse" x1="-1100.0264" y1="-7245.0054" x2="-867.2991" y2="-7477.7329" gradientTransform="matrix(0.1875 0 0 -0.1875 -1286.875 -1356.2958)">
		<stop  offset="0" style="stop-color:#9013FE"/>
		<stop  offset="1" style="stop-color:#6B11F4"/>
	</linearGradient>
	<path style="fill:url(#SVGID_00000026857320510698351430000014940005083841113742_);" d="M-1482.9,2.2h23.2
		c5.6,0,10.2,4.5,10.2,10.2v23.2c0,5.6-4.5,10.2-10.2,10.2h-23.2c-5.6,0-10.2-4.5-10.2-10.2V12.5C-1493.2,6.8-1488.6,2.2-1482.9,2.2
		z"/>
	<g>
		
			<linearGradient id="SVGID_00000104668504789159365550000001584407896896607627_" gradientUnits="userSpaceOnUse" x1="-1024.6973" y1="-7309.3867" x2="-967.6537" y2="-7405.8613" gradientTransform="matrix(0.1875 0 0 -0.1875 -1286.875 -1356.2958)">
			<stop  offset="0" style="stop-color:#FFFFFF"/>
			<stop  offset="1" style="stop-color:#F1E5FC"/>
		</linearGradient>
		<path style="fill:url(#SVGID_00000104668504789159365550000001584407896896607627_);" d="M-1470.7,35.6c5.1,0,8.1-2.5,8.1-6.5
			c0-3.1-2.2-5.4-5.4-5.6v-0.1c2.4-0.4,4.3-2.5,4.3-5.1c0-3.5-2.7-5.8-7-5.8h-9.5v23.2C-1480.2,35.6-1470.7,35.6-1470.7,35.6z
			 M-1476.5,15.4h4.9c2.6,0,4.2,1.2,4.2,3.4c0,2.3-1.7,3.5-5,3.5h-4.1V15.4L-1476.5,15.4z M-1476.5,32.7v-7.6h4.9
			c3.5,0,5.3,1.3,5.3,3.8s-1.7,3.8-5.1,3.8H-1476.5L-1476.5,32.7z"/>
		<path class="st13" d="M-1470.7,35.6c5.1,0,8.1-2.5,8.1-6.5c0-3.1-2.2-5.4-5.4-5.6v-0.1c2.4-0.4,4.3-2.5,4.3-5.1
			c0-3.5-2.7-5.8-7-5.8h-9.5v23.2C-1480.2,35.6-1470.7,35.6-1470.7,35.6z M-1476.5,15.4h4.9c2.6,0,4.2,1.2,4.2,3.4
			c0,2.3-1.7,3.5-5,3.5h-4.1V15.4L-1476.5,15.4z M-1476.5,32.7v-7.6h4.9c3.5,0,5.3,1.3,5.3,3.8s-1.7,3.8-5.1,3.8H-1476.5
			L-1476.5,32.7z"/>
	</g>
</g>
<g transform="translate(2100, 0)">
	<path class="st14" d="M-1681.1,2.2h23.2c5.6,0,10.2,4.5,10.2,10.2v23.2c0,5.6-4.5,10.2-10.2,10.2h-23.2c-5.6,0-10.2-4.5-10.2-10.2
		V12.5C-1691.4,6.8-1686.8,2.2-1681.1,2.2z"/>
	<g>
		<g>
			<g>
				<defs>
					<rect id="SVGID_00000052814887965504662670000004093752120896702911_" x="-1686.5" y="11.3" width="34.1" height="25.5"/>
				</defs>
				<clipPath id="SVGID_00000105421100442219640960000001960565324752269481_">
					<use xlink:href="#SVGID_00000052814887965504662670000004093752120896702911_"  style="overflow:visible;"/>
				</clipPath>
				<g style="clip-path:url(#SVGID_00000105421100442219640960000001960565324752269481_);">
					<path class="st1" d="M-1657.3,25.9c-1.2,0-2.2,0.3-3.1,0.7c-0.3-0.6-0.6-1.2-0.7-1.6s-0.2-0.7-0.1-1.4c0.1-0.6,0.5-1.4,0.4-1.5
						c0-0.1-0.1-0.4-0.7-0.4c-0.7,0-1.3,0.1-1.4,0.3c-0.1,0.2-0.2,0.6-0.3,1c-0.1,0.6-1.4,2.8-2.1,4c-0.3-0.5-0.5-0.8-0.5-1.2
						c-0.1-0.5-0.2-0.7-0.1-1.4c0.1-0.5,0.5-1.4,0.4-1.5c0-0.1-0.1-0.4-0.7-0.4c-0.7,0-1.3,0.1-1.4,0.3c-0.1,0.2-0.2,0.6-0.3,1
						c-0.2,0.5-1.8,4.1-2.3,5.1c-0.2,0.5-0.5,0.9-0.5,1.2c0,0,0,0,0,0.1c-0.1,0.3-0.2,0.4-0.2,0.4l0,0c-0.1,0.2-0.2,0.4-0.3,0.4
						c0,0-0.1-0.5,0-1.1c0.3-1.3,0.8-3.3,0.8-3.4c0,0,0.1-0.4-0.4-0.5c-0.5-0.2-0.6,0.1-0.7,0.1l-0.1,0.1c0,0,0.5-2.3-1-2.3
						c-1,0-2.4,1.1-3,2.1c-0.5,0.3-1.4,0.7-2.3,1.3c-0.4,0.2-0.7,0.5-1.1,0.6l-0.1-0.1c-1.9-2-5.5-3.5-5.3-6.2
						c0.1-1,0.4-3.6,6.7-6.8c5.3-2.5,9.5-1.9,10.1-0.3c1,2.3-2.3,6.5-7.6,7.1c-2.1,0.3-3.2-0.5-3.5-0.9c-0.3-0.3-0.4-0.4-0.5-0.3
						c-0.2,0.1-0.1,0.4,0,0.5c0.2,0.5,0.8,1.2,1.9,1.5c1,0.4,3.5,0.5,6.4-0.6c3.3-1.3,5.8-4.8,5.1-7.7c-0.7-3-5.7-4-10.5-2.3
						c-2.8,1-5.8,2.5-8,4.6c-2.6,2.5-3,4.5-2.8,5.5c0.6,3.2,4.9,5.2,6.6,6.7c-0.1,0.1-0.2,0.1-0.3,0.1c-0.9,0.5-4.2,2.2-5,4
						c-0.9,2.1,0.2,3.5,0.9,3.7c2.2,0.6,4.5-0.5,5.7-2.4c1.2-1.8,1.1-4.2,0.5-5.3l0,0c0.2-0.1,0.5-0.3,0.6-0.4
						c0.5-0.3,0.9-0.5,1.3-0.7c-0.2,0.5-0.4,1.3-0.5,2.3c-0.1,1.2,0.4,2.7,1,3.3c0.3,0.3,0.6,0.3,0.8,0.3c0.7,0,1.1-0.6,1.5-1.4
						c0.5-0.9,0.8-1.9,0.8-1.9s-0.5,2.8,0.9,2.8c0.5,0,1-0.6,1.2-1l0,0c0,0,0,0,0-0.1c0.1-0.1,0.1-0.1,0.1-0.1l0,0
						c0.2-0.4,0.6-1.2,1.3-2.5c0.8-1.7,1.7-3.8,1.7-3.8s0.1,0.5,0.4,1.4c0.2,0.5,0.5,1.1,0.7,1.6c-0.2,0.3-0.4,0.5-0.4,0.5l0,0
						c-0.2,0.2-0.4,0.5-0.5,0.6c-0.6,0.8-1.5,1.7-1.6,2c-0.1,0.3-0.1,0.5,0.2,0.7c0.2,0.2,0.5,0.2,0.8,0.2c0.6,0,1-0.2,1.3-0.3
						c0.4-0.1,0.7-0.3,1.1-0.5c0.6-0.5,1.1-1.2,1-2.1c0-0.5-0.2-1-0.4-1.5c0.1-0.1,0.1-0.2,0.2-0.3c1.1-1.5,1.9-3.2,1.9-3.2
						s0.1,0.5,0.4,1.4c0.1,0.5,0.4,0.9,0.6,1.4c-1,0.8-1.6,1.7-1.8,2.4c-0.4,1.1-0.1,1.6,0.5,1.7c0.3,0.1,0.6-0.1,0.9-0.2
						c0.4-0.1,0.7-0.3,1.2-0.6c0.6-0.5,1.3-1.2,1.3-2.1c0-0.5-0.1-0.8-0.3-1.3c0.8-0.4,1.9-0.5,3.3-0.4c3,0.4,3.5,2.2,3.5,3
						c-0.1,0.8-0.7,1.2-0.9,1.4c-0.2,0.1-0.3,0.2-0.3,0.3c0,0.2,0.1,0.1,0.3,0.1c0.3,0,1.5-0.6,1.6-2.1
						C-1652.5,27.9-1654.2,25.9-1657.3,25.9z M-1680.1,33.6c-1,1.1-2.4,1.5-2.9,1.1c-0.6-0.4-0.4-1.9,0.8-3.1
						c0.7-0.7,1.6-1.4,2.3-1.7c0.2-0.1,0.4-0.2,0.6-0.4h0.1c0.1,0,0.1-0.1,0.2-0.1C-1678.6,31.1-1679.1,32.5-1680.1,33.6z
						 M-1672.9,28.7c-0.4,0.8-1.1,3-1.5,2.8c-0.4-0.1-0.6-1.7-0.1-3.3c0.3-0.8,0.8-1.7,1.2-2.1c0.5-0.6,1.1-0.8,1.3-0.5
						C-1671.9,25.9-1672.7,28.3-1672.9,28.7z M-1667,31.5c-0.2,0.1-0.3,0.1-0.4,0.1l0.1-0.1c0,0,0.7-0.8,1-1.2
						c0.2-0.2,0.4-0.5,0.5-0.7v0.1C-1665.7,30.6-1666.6,31.3-1667,31.5z M-1662.5,30.5c-0.1-0.1-0.1-0.4,0.3-1.1
						c0.2-0.3,0.5-0.8,1-1.3c0.1,0.2,0.1,0.4,0.1,0.5C-1661.1,29.9-1662,30.4-1662.5,30.5z"/>
				</g>
			</g>
		</g>
	</g>
</g>
<g transform="translate(2400, 0)">
	<path class="st16" d="M-1930,2.2h23.2c5.6,0,10.2,4.5,10.2,10.2v23.2c0,5.6-4.5,10.2-10.2,10.2h-23.2c-5.6,0-10.2-4.5-10.2-10.2
		V12.5C-1940.2,6.8-1935.6,2.2-1930,2.2z"/>
	<path class="st17" d="M-1931.1,19.7l0.5,5.5h12.2v-5.5H-1931.1z"/>
	<path class="st17" d="M-1918.4,8.6L-1918.4,8.6h-13.6l0.5,5.5h13.2V8.6z"/>
	<path class="st17" d="M-1918.4,39.5v-5.6l0,0l-6.1-1.6l-0.4-4.4h-2.9h-2.5l0.7,8.5L-1918.4,39.5L-1918.4,39.5z"/>
	<path class="st1" d="M-1911.7,25.2l-0.6,7.1l-6.1,1.6v5.6l11.2-3.1l0.1-0.9l1.3-14.4l0.1-1.5l1-11h-13.6v5.5h7.6l-0.5,5.5h-7.2v5.5
		C-1918.5,25.2-1911.7,25.2-1911.7,25.2z"/>
</g>
<g transform="translate(2700, 0)">
	<path class="st18" d="M-2178.9,2.2h23.2c5.6,0,10.2,4.5,10.2,10.2v23.2c0,5.6-4.5,10.2-10.2,10.2h-23.2c-5.6,0-10.2-4.5-10.2-10.2
		V12.5C-2189.1,6.8-2184.5,2.2-2178.9,2.2z"/>
	<path class="st1" d="M-2180.9,8.6l1.5,16.5h18.9l-0.6,7.1l-6.1,1.6l-6.1-1.6l-0.4-4.5h-5.5l0.8,8.7l11.2,3.1l11.2-3.1l1.5-16.7
		h-19.8l-0.5-5.5h20.8l0,0l0.5-5.5H-2180.9z"/>
	<path class="st17" d="M-2167.3,8.6h-13.6l1.5,16.5h12.2v-5.5h-7.2l-0.5-5.5h7.7L-2167.3,8.6L-2167.3,8.6z"/>
	<path class="st17" d="M-2167.3,33.8L-2167.3,33.8l-6.1-1.6l-0.4-4.5h-5.5l0.8,8.7l11.2,3.1l0,0L-2167.3,33.8L-2167.3,33.8z"/>
</g>
<g>
	<path class="st1" d="M368.2,2.2h23.2c5.6,0,10.2,4.5,10.2,10.2v23.2c0,5.6-4.5,10.2-10.2,10.2h-23.2c-5.6,0-10.2-4.5-10.2-10.2
		V12.5C358,6.8,362.5,2.2,368.2,2.2z"/>
	<g>
		
			<linearGradient id="SVGID_00000134934803948192024660000009384125777184990360_" gradientUnits="userSpaceOnUse" x1="-1022.6219" y1="531.2512" x2="-1022.5432" y2="531.1865" gradientTransform="matrix(189.8312 0 0 -255.3408 194496.125 135664.6094)">
			<stop  offset="0" style="stop-color:#4285EB"/>
			<stop  offset="1" style="stop-color:#2EC7FF"/>
		</linearGradient>
		<path style="fill:url(#SVGID_00000134934803948192024660000009384125777184990360_);" d="M377.9,3l-19.2,19.2c-1,1-1,2.7,0,3.7
			l19.2,19.2c1,1,2.7,1,3.7,0l8-8c0.9-0.9,0.9-2.5,0-3.4c-0.9-0.9-2.5-0.9-3.4,0l-6.1,6.1c-0.3,0.3-0.6,0.3-0.9,0l-15.4-15.3
			c-0.3-0.3-0.3-0.6,0-0.9l15.4-15.3c0.3-0.3,0.6-0.3,0.9,0l6.1,6.1c0.9,0.9,2.5,0.9,3.4,0c0.9-0.9,0.9-2.5,0-3.4l-8-8
			C380.6,1.9,378.9,1.9,377.9,3z"/>
		
			<linearGradient id="SVGID_00000121248487679661794080000010524613772327791745_" gradientUnits="userSpaceOnUse" x1="-1022.5872" y1="531.302" x2="-1022.6138" y2="531.1166" gradientTransform="matrix(189.8312 0 0 -255.3408 194496.125 135664.6094)">
			<stop  offset="0" style="stop-color:#29CDFF"/>
			<stop  offset="0.3786" style="stop-color:#148EFF"/>
			<stop  offset="1" style="stop-color:#0A60FF"/>
		</linearGradient>
		<path style="fill:url(#SVGID_00000121248487679661794080000010524613772327791745_);" d="M377.9,3l-19.2,19.2c-1,1-1,2.7,0,3.7
			l19.2,19.2c1,1,2.7,1,3.7,0l8-8c0.9-0.9,0.9-2.5,0-3.4c-0.9-0.9-2.5-0.9-3.4,0l-6.1,6.1c-0.3,0.3-0.6,0.3-0.9,0l-15.4-15.3
			c-0.3-0.3-0.3-0.6,0-0.9l15.4-15.3c0.6-0.5,1.7-1.6,3.2-1.9c1.2-0.2,2.4,0.3,3.7,1.3c-0.9-0.9-2.5-2.5-4.6-4.6
			C380.6,1.9,378.9,1.9,377.9,3z"/>
		
			<linearGradient id="SVGID_00000152956938192143249350000000243200906932104064_" gradientUnits="userSpaceOnUse" x1="-1010.4537" y1="523.0255" x2="-1010.5443" y2="522.8027" gradientTransform="matrix(63.2292 0 0 -99.5071 64288.3555 52058.0469)">
			<stop  offset="0" style="stop-color:#FA816E"/>
			<stop  offset="0.4147" style="stop-color:#F74A5C"/>
			<stop  offset="1" style="stop-color:#F51D2C"/>
		</linearGradient>
		<path style="fill:url(#SVGID_00000152956938192143249350000000243200906932104064_);" d="M391.5,31.9c0.9,0.9,2.5,0.9,3.4,0
			l5.9-5.9c1-1,1-2.7,0-3.7l-6-6c-0.9-0.9-2.5-0.9-3.4,0c-0.9,0.9-0.9,2.5,0,3.4l4,4c0.3,0.3,0.3,0.6,0,0.9l-4,4
			C390.6,29.5,390.6,31,391.5,31.9L391.5,31.9z"/>
		
			<linearGradient id="SVGID_00000017515324139591996710000005861646088156205226_" gradientUnits="userSpaceOnUse" x1="-1008.3344" y1="514.3362" x2="-1008.3987" y2="514.0787" gradientTransform="matrix(60.6534 0 0 -60.6035 61541.0078 31185.9102)">
			<stop  offset="0" style="stop-color:#FA8E7D"/>
			<stop  offset="0.5126" style="stop-color:#F74A5C"/>
			<stop  offset="1" style="stop-color:#F51D2C"/>
		</linearGradient>
		
			<ellipse style="fill:url(#SVGID_00000017515324139591996710000005861646088156205226_);" cx="379.9" cy="24.1" rx="5.2" ry="5.2"/>
	</g>
</g>
</svg>
